# Blender 3.3.1
# www.blender.org
o Sphere
v 0.000000 17.297222 -0.923880 0.7372 0.8627 0.7843
v 0.000000 16.914539 -1.000000 0.0000 0.0000 0.0000
v -0.000000 16.531857 -1.375646 0.0000 0.0000 0.0000
v 0.146447 17.838419 -0.353553 0.7372 0.8627 0.7843
v 0.270598 17.621647 -0.653281 0.7372 0.8627 0.7843
v 0.353553 17.297222 -0.853553 0.7372 0.8627 0.7843
v 0.382683 16.914539 -0.923880 0.0000 0.0000 0.0000
v 0.526437 16.531857 -1.270931 0.0000 0.0000 0.0000
v 0.270598 17.838419 -0.270598 0.7372 0.8627 0.7843
v 0.500000 17.621647 -0.500000 0.7372 0.8627 0.7843
v 0.653282 17.297222 -0.653281 0.7372 0.8627 0.7843
v 0.707107 16.914539 -0.707107 0.0000 0.0000 0.0000
v 0.972729 16.531857 -0.972728 0.0000 0.0000 0.0000
v 0.353553 17.838419 -0.146447 0.7371 0.8626 0.7842
v 0.653281 17.621647 -0.270598 0.7367 0.8621 0.7837
v 0.853553 17.297222 -0.353553 0.7372 0.8627 0.7843
v 0.923880 16.914539 -0.382683 0.0000 0.0000 0.0000
v 1.270931 16.531857 -0.526437 0.0000 0.0000 0.0000
v 0.382683 17.838419 0.000000 0.7372 0.8627 0.7843
v 0.707107 17.621647 0.000000 0.7372 0.8627 0.7843
v 0.923880 17.297222 0.000000 0.7356 0.8608 0.7825
v 1.000000 16.914539 0.000000 0.0000 0.0000 0.0000
v 1.375646 16.531857 0.000000 0.0000 0.0000 0.0000
v 0.353553 17.838419 0.146447 0.7372 0.8627 0.7843
v 0.653281 17.621647 0.270598 0.7372 0.8627 0.7843
v 0.853553 17.297222 0.353554 0.7372 0.8627 0.7843
v 0.923879 16.914539 0.382684 0.0000 0.0000 0.0000
v 1.270931 16.531857 0.526437 0.0000 0.0000 0.0000
v 0.270598 17.838419 0.270598 0.7372 0.8627 0.7843
v 0.500000 17.621647 0.500000 0.7372 0.8627 0.7843
v 0.653281 17.297222 0.653282 0.7372 0.8627 0.7843
v 0.707107 16.914539 0.707107 0.0000 0.0000 0.0000
v 0.972728 16.531857 0.972729 0.0000 0.0000 0.0000
v 0.146447 17.838419 0.353553 0.7372 0.8627 0.7843
v 0.270598 17.621647 0.653281 0.7372 0.8627 0.7843
v 0.353553 17.297222 0.853553 0.7372 0.8627 0.7843
v 0.382683 16.914539 0.923880 0.0000 0.0000 0.0000
v 0.526437 16.531857 1.270931 0.0000 0.0000 0.0000
v -0.000000 17.838419 0.382683 0.7372 0.8627 0.7843
v -0.000000 17.621647 0.707107 0.7372 0.8627 0.7843
v -0.000000 17.297222 0.923879 0.7372 0.8627 0.7843
v -0.000000 16.914539 1.000000 0.0000 0.0000 0.0000
v -0.000000 16.531857 1.375646 0.0000 0.0000 0.0000
v 0.000000 17.914539 0.000000 0.7372 0.8627 0.7843
v -0.146447 17.838419 0.353553 0.7372 0.8627 0.7843
v -0.270598 17.621647 0.653281 0.7372 0.8627 0.7843
v -0.353554 17.297222 0.853553 0.7372 0.8627 0.7843
v -0.382684 16.914539 0.923879 0.0000 0.0000 0.0000
v -0.526437 16.531857 1.270931 0.0000 0.0000 0.0000
v -0.270598 17.838419 0.270598 0.7372 0.8627 0.7843
v -0.500000 17.621647 0.500000 0.7372 0.8627 0.7843
v -0.653282 17.297222 0.653281 0.7372 0.8627 0.7843
v -0.707107 16.914539 0.707106 0.0000 0.0000 0.0000
v -0.972729 16.531857 0.972728 0.0000 0.0000 0.0000
v -0.353553 17.838419 0.146446 0.7372 0.8627 0.7843
v -0.653281 17.621647 0.270598 0.7367 0.8621 0.7837
v -0.853553 17.297222 0.353553 0.7372 0.8627 0.7843
v -0.923880 16.914539 0.382683 0.0000 0.0000 0.0000
v -1.270931 16.531857 0.526436 0.0000 0.0000 0.0000
v -0.382683 17.838419 -0.000000 0.7372 0.8627 0.7843
v -0.707107 17.621647 -0.000000 0.7372 0.8627 0.7843
v -0.923879 17.297222 -0.000000 0.7372 0.8627 0.7843
v -1.000000 16.914539 -0.000001 0.0000 0.0000 0.0000
v -1.375646 16.531857 -0.000000 0.0000 0.0000 0.0000
v -0.353553 17.838419 -0.146447 0.7372 0.8627 0.7843
v -0.653281 17.621647 -0.270598 0.7372 0.8627 0.7843
v -0.853553 17.297222 -0.353554 0.7372 0.8627 0.7843
v -0.923879 16.914539 -0.382684 0.0000 0.0000 0.0000
v -1.270931 16.531857 -0.526437 0.0000 0.0000 0.0000
v -0.270598 17.838419 -0.270598 0.7372 0.8627 0.7843
v -0.500000 17.621647 -0.500000 0.7372 0.8627 0.7843
v -0.653281 17.297222 -0.653282 0.7372 0.8627 0.7843
v -0.707106 16.914539 -0.707107 0.0000 0.0000 0.0000
v -0.972728 16.531857 -0.972729 0.0000 0.0000 0.0000
v -0.146446 17.838419 -0.353554 0.7372 0.8627 0.7843
v -0.270598 17.621647 -0.653281 0.7372 0.8627 0.7843
v -0.353553 17.297222 -0.853553 0.7372 0.8627 0.7843
v -0.382683 16.914539 -0.923880 0.0000 0.0000 0.0000
v -0.526436 16.531857 -1.270931 0.0000 0.0000 0.0000
v 0.000000 17.838419 -0.382683 0.7372 0.8627 0.7843
v 0.000000 17.621647 -0.707107 0.7372 0.8627 0.7843
v 0.000000 16.937763 -0.999738 0.7372 0.8627 0.7843
v 0.382583 16.937763 -0.923637 0.7372 0.8627 0.7843
v 0.706921 16.937763 -0.706921 0.7372 0.8627 0.7843
v 0.923637 16.937763 -0.382583 0.7372 0.8627 0.7843
v 0.999738 16.937763 0.000000 0.7372 0.8627 0.7843
v 0.923637 16.937763 0.382583 0.7372 0.8627 0.7843
v 0.706921 16.937763 0.706922 0.7372 0.8627 0.7843
v 0.382583 16.937763 0.923637 0.7372 0.8627 0.7843
v -0.000000 16.937763 0.999738 0.7372 0.8627 0.7843
v -0.382583 16.937763 0.923637 0.7372 0.8627 0.7843
v -0.706922 16.937763 0.706921 0.7331 0.8580 0.7800
v -0.923637 16.937763 0.382583 0.7046 0.8249 0.7497
v -0.999738 16.937763 -0.000000 0.7370 0.8625 0.7841
v -0.923637 16.937763 -0.382584 0.7372 0.8627 0.7843
v -0.706921 16.937763 -0.706922 0.7372 0.8627 0.7843
v -0.382583 16.937763 -0.923637 0.7372 0.8627 0.7843
vn -0.0000 0.6952 -0.7189
vn 0.3540 0.3799 -0.8546
vn -0.0000 0.3799 -0.9250
vn -0.0000 0.9152 -0.4031
vn -0.0000 1.0000 -0.0000
vn 0.1543 0.9152 -0.3724
vn 0.3804 0.1081 -0.9185
vn -0.0000 0.1081 -0.9941
vn 0.2751 0.6952 -0.6641
vn 0.1405 0.6936 -0.7066
vn 0.6541 0.3799 -0.6541
vn 0.7030 0.1081 -0.7030
vn 0.5083 0.6952 -0.5083
vn 0.4002 0.6936 -0.5990
vn 0.2850 0.9152 -0.2850
vn 0.5990 0.6936 -0.4002
vn 0.8546 0.3799 -0.3540
vn 0.3724 0.9152 -0.1543
vn 0.9185 0.1081 -0.3804
vn 0.6641 0.6952 -0.2751
vn 0.7066 0.6936 -0.1405
vn 0.7189 0.6952 -0.0000
vn 0.9250 0.3799 -0.0000
vn 0.4031 0.9152 -0.0000
vn 0.9941 0.1081 -0.0000
vn 0.9185 0.1081 0.3804
vn 0.3724 0.9152 0.1543
vn 0.6641 0.6952 0.2751
vn 0.7066 0.6936 0.1405
vn 0.8546 0.3799 0.3540
vn 0.7030 0.1081 0.7030
vn 0.2850 0.9152 0.2850
vn 0.5083 0.6952 0.5083
vn 0.5990 0.6936 0.4002
vn 0.6541 0.3799 0.6541
vn 0.4002 0.6936 0.5990
vn 0.3540 0.3799 0.8546
vn 0.1543 0.9152 0.3724
vn 0.3804 0.1081 0.9185
vn 0.2751 0.6952 0.6641
vn -0.0000 0.3799 0.9250
vn -0.0000 0.9152 0.4031
vn -0.0000 0.1081 0.9941
vn -0.0000 0.6952 0.7189
vn 0.1405 0.6936 0.7066
vn -0.3540 0.3799 0.8546
vn -0.3804 0.1081 0.9185
vn -0.2751 0.6952 0.6641
vn -0.1405 0.6936 0.7066
vn -0.1543 0.9152 0.3724
vn -0.5083 0.6952 0.5083
vn -0.4002 0.6936 0.5990
vn -0.6541 0.3799 0.6541
vn -0.2850 0.9152 0.2850
vn -0.7030 0.1081 0.7030
vn -0.5990 0.6936 0.4002
vn -0.8546 0.3799 0.3540
vn -0.3724 0.9152 0.1543
vn -0.9185 0.1081 0.3804
vn -0.6641 0.6952 0.2751
vn -0.4031 0.9152 -0.0000
vn -0.9250 0.3799 -0.0000
vn -0.9941 0.1081 -0.0000
vn -0.7189 0.6952 -0.0000
vn -0.7066 0.6936 0.1405
vn -0.8546 0.3799 -0.3540
vn -0.9185 0.1081 -0.3804
vn -0.6641 0.6952 -0.2751
vn -0.7066 0.6936 -0.1405
vn -0.3724 0.9152 -0.1543
vn -0.5990 0.6936 -0.4002
vn -0.6541 0.3799 -0.6541
vn -0.2850 0.9152 -0.2850
vn -0.7030 0.1081 -0.7030
vn -0.5083 0.6952 -0.5083
vn -0.4002 0.6936 -0.5990
vn -0.3540 0.3799 -0.8546
vn -0.1543 0.9152 -0.3724
vn -0.3804 0.1081 -0.9185
vn -0.2751 0.6952 -0.6641
vn -0.1405 0.6936 -0.7066
vn -0.1951 0.0111 -0.9807
vn -0.5555 0.0111 -0.8314
vn -0.8314 0.0111 -0.5555
vn -0.9807 0.0111 -0.1951
vn -0.9807 0.0111 0.1951
vn -0.8314 0.0111 0.5555
vn -0.5555 0.0111 0.8314
vn -0.1951 0.0111 0.9807
vn 0.1951 0.0111 0.9807
vn 0.5555 0.0111 0.8314
vn 0.8314 0.0111 0.5555
vn 0.9807 0.0111 0.1951
vn 0.9807 0.0111 -0.1951
vn 0.8314 0.0111 -0.5555
vn 0.5555 0.0111 -0.8314
vn 0.1951 0.0111 -0.9807
vt 0.750000 0.625000
vt 0.750000 0.500000
vt 0.750000 0.375000
vt 0.687500 0.875000
vt 0.687500 0.750000
vt 0.687500 0.625000
vt 0.687500 0.500000
vt 0.687500 0.375000
vt 0.625000 0.875000
vt 0.625000 0.750000
vt 0.625000 0.625000
vt 0.625000 0.500000
vt 0.625000 0.375000
vt 0.562500 0.875000
vt 0.562500 0.750000
vt 0.562500 0.625000
vt 0.562500 0.500000
vt 0.562500 0.375000
vt 0.500000 0.875000
vt 0.500000 0.750000
vt 0.500000 0.625000
vt 0.500000 0.500000
vt 0.500000 0.375000
vt 0.437500 0.875000
vt 0.437500 0.750000
vt 0.437500 0.625000
vt 0.437500 0.500000
vt 0.437500 0.375000
vt 0.375000 0.875000
vt 0.375000 0.750000
vt 0.375000 0.625000
vt 0.375000 0.500000
vt 0.375000 0.375000
vt 0.312500 0.875000
vt 0.312500 0.750000
vt 0.312500 0.625000
vt 0.312500 0.500000
vt 0.312500 0.375000
vt 0.250000 0.875000
vt 0.250000 0.750000
vt 0.250000 0.625000
vt 0.250000 0.500000
vt 0.250000 0.375000
vt 0.718750 1.000000
vt 0.656250 1.000000
vt 0.593750 1.000000
vt 0.531250 1.000000
vt 0.468750 1.000000
vt 0.406250 1.000000
vt 0.343750 1.000000
vt 0.281250 1.000000
vt 0.218750 1.000000
vt 0.156250 1.000000
vt 0.093750 1.000000
vt 0.031250 1.000000
vt 0.968750 1.000000
vt 0.906250 1.000000
vt 0.843750 1.000000
vt 0.781250 1.000000
vt 0.187500 0.875000
vt 0.187500 0.750000
vt 0.187500 0.625000
vt 0.187500 0.500000
vt 0.187500 0.375000
vt 0.125000 0.875000
vt 0.125000 0.750000
vt 0.125000 0.625000
vt 0.125000 0.500000
vt 0.125000 0.375000
vt 0.062500 0.875000
vt 0.062500 0.750000
vt 0.062500 0.625000
vt 0.062500 0.500000
vt 0.062500 0.375000
vt 0.000000 0.875000
vt 1.000000 0.875000
vt 0.000000 0.750000
vt 1.000000 0.750000
vt 0.000000 0.625000
vt 1.000000 0.625000
vt 1.000000 0.500000
vt 0.000000 0.500000
vt 1.000000 0.375000
vt 0.000000 0.375000
vt 0.937500 0.875000
vt 0.937500 0.750000
vt 0.937500 0.625000
vt 0.937500 0.500000
vt 0.937500 0.375000
vt 0.875000 0.875000
vt 0.875000 0.750000
vt 0.875000 0.625000
vt 0.875000 0.500000
vt 0.875000 0.375000
vt 0.812500 0.875000
vt 0.812500 0.750000
vt 0.812500 0.625000
vt 0.812500 0.500000
vt 0.812500 0.375000
vt 0.750000 0.875000
vt 0.750000 0.750000
vt 0.750000 0.507586
vt 0.687500 0.507586
vt 0.625000 0.507586
vt 0.562500 0.507586
vt 0.500000 0.507586
vt 0.437500 0.507586
vt 0.375000 0.507586
vt 0.312500 0.507586
vt 0.250000 0.507586
vt 0.187500 0.507586
vt 0.125000 0.507586
vt 0.062500 0.507586
vt 1.000000 0.507586
vt 0.000000 0.507586
vt 0.937500 0.507586
vt 0.875000 0.507586
vt 0.812500 0.507586
s 1
f 81/101/1 6/6/2 1/1/3
f 80/100/4 44/44/5 4/4/6
f 1/1/3 83/103/7 82/102/8
f 81/101/1 4/4/6 5/5/9
s 0
f 3/3/10 7/7/10 8/8/10
s 1
f 83/103/7 11/11/11 84/104/12
f 4/4/6 10/10/13 5/5/9
s 0
f 7/7/14 13/13/14 8/8/14
s 1
f 5/5/9 11/11/11 6/6/2
f 4/4/6 44/45/5 9/9/15
s 0
f 12/12/16 18/18/16 13/13/16
s 1
f 10/10/13 16/16/17 11/11/11
f 9/9/15 44/46/5 14/14/18
f 84/104/12 16/16/17 85/105/19
f 9/9/15 15/15/20 10/10/13
s 0
f 17/17/21 23/23/21 18/18/21
s 1
f 16/16/17 20/20/22 21/21/23
f 14/14/18 44/47/5 19/19/24
f 16/16/17 86/106/25 85/105/19
f 14/14/18 20/20/22 15/15/20
f 21/21/23 87/107/26 86/106/25
f 20/20/22 24/24/27 25/25/28
s 0
f 23/23/29 27/27/29 28/28/29
s 1
f 20/20/22 26/26/30 21/21/23
f 19/19/24 44/48/5 24/24/27
f 26/26/30 88/108/31 87/107/26
f 25/25/28 29/29/32 30/30/33
s 0
f 27/27/34 33/33/34 28/28/34
s 1
f 25/25/28 31/31/35 26/26/30
f 24/24/27 44/49/5 29/29/32
s 0
f 32/32/36 38/38/36 33/33/36
s 1
f 30/30/33 36/36/37 31/31/35
f 29/29/32 44/50/5 34/34/38
f 31/31/35 89/109/39 88/108/31
f 29/29/32 35/35/40 30/30/33
f 35/35/40 41/41/41 36/36/37
f 34/34/38 44/51/5 39/39/42
f 89/109/39 41/41/41 90/110/43
f 34/34/38 40/40/44 35/35/40
s 0
f 37/37/45 43/43/45 38/38/45
s 1
f 90/110/43 47/62/46 91/111/47
f 39/39/42 46/61/48 40/40/44
s 0
f 42/42/49 49/64/49 43/43/49
s 1
f 40/40/44 47/62/46 41/41/41
f 39/39/42 44/52/5 45/60/50
f 45/60/50 51/66/51 46/61/48
s 0
f 48/63/52 54/69/52 49/64/52
s 1
f 46/61/48 52/67/53 47/62/46
f 45/60/50 44/53/5 50/65/54
f 91/111/47 52/67/53 92/112/55
s 0
f 53/68/56 59/74/56 54/69/56
s 1
f 51/66/51 57/72/57 52/67/53
f 50/65/54 44/54/5 55/70/58
f 92/112/55 57/72/57 93/113/59
f 50/65/54 56/71/60 51/66/51
f 55/70/58 44/55/5 60/75/61
f 93/113/59 62/79/62 94/115/63
f 56/71/60 60/75/61 61/77/64
s 0
f 58/73/65 64/84/65 59/74/65
s 1
f 56/71/60 62/79/62 57/72/57
f 94/114/63 67/87/66 95/116/67
f 60/76/61 66/86/68 61/78/64
s 0
f 63/81/69 69/89/69 64/83/69
s 1
f 61/78/64 67/87/66 62/80/62
f 60/76/61 44/56/5 65/85/70
s 0
f 68/88/71 74/94/71 69/89/71
s 1
f 66/86/68 72/92/72 67/87/66
f 65/85/70 44/57/5 70/90/73
f 95/116/67 72/92/72 96/117/74
f 65/85/70 71/91/75 66/86/68
s 0
f 73/93/76 79/99/76 74/94/76
s 1
f 71/91/75 77/97/77 72/92/72
f 70/90/73 44/58/5 75/95/78
f 96/117/74 77/97/77 97/118/79
f 70/90/73 76/96/80 71/91/75
f 97/118/79 1/1/3 82/102/8
f 76/96/80 80/100/4 81/101/1
s 0
f 79/99/81 2/2/81 3/3/81
s 1
f 76/96/80 1/1/3 77/97/77
f 75/95/78 44/59/5 80/100/4
s 0
f 78/98/82 82/102/82 2/2/82
f 96/117/83 78/98/83 73/93/83
f 95/116/84 73/93/84 68/88/84
f 94/114/85 68/88/85 63/81/85
f 93/113/86 63/82/86 58/73/86
f 92/112/87 58/73/87 53/68/87
f 91/111/88 53/68/88 48/63/88
f 90/110/89 48/63/89 42/42/89
f 89/109/90 42/42/90 37/37/90
f 88/108/91 37/37/91 32/32/91
f 27/27/92 88/108/92 32/32/92
f 86/106/93 27/27/93 22/22/93
f 85/105/94 22/22/94 17/17/94
f 84/104/95 17/17/95 12/12/95
f 83/103/96 12/12/96 7/7/96
f 82/102/97 7/7/97 2/2/97
s 1
f 81/101/1 5/5/9 6/6/2
f 1/1/3 6/6/2 83/103/7
f 81/101/1 80/100/4 4/4/6
s 0
f 3/3/10 2/2/10 7/7/10
s 1
f 83/103/7 6/6/2 11/11/11
f 4/4/6 9/9/15 10/10/13
s 0
f 7/7/14 12/12/14 13/13/14
s 1
f 5/5/9 10/10/13 11/11/11
s 0
f 12/12/16 17/17/16 18/18/16
s 1
f 10/10/13 15/15/20 16/16/17
f 84/104/12 11/11/11 16/16/17
f 9/9/15 14/14/18 15/15/20
s 0
f 17/17/21 22/22/21 23/23/21
s 1
f 16/16/17 15/15/20 20/20/22
f 16/16/17 21/21/23 86/106/25
f 14/14/18 19/19/24 20/20/22
f 21/21/23 26/26/30 87/107/26
f 20/20/22 19/19/24 24/24/27
s 0
f 23/23/29 22/22/29 27/27/29
s 1
f 20/20/22 25/25/28 26/26/30
f 26/26/30 31/31/35 88/108/31
f 25/25/28 24/24/27 29/29/32
s 0
f 27/27/34 32/32/34 33/33/34
s 1
f 25/25/28 30/30/33 31/31/35
s 0
f 32/32/36 37/37/36 38/38/36
s 1
f 30/30/33 35/35/40 36/36/37
f 31/31/35 36/36/37 89/109/39
f 29/29/32 34/34/38 35/35/40
f 35/35/40 40/40/44 41/41/41
f 89/109/39 36/36/37 41/41/41
f 34/34/38 39/39/42 40/40/44
s 0
f 37/37/45 42/42/45 43/43/45
s 1
f 90/110/43 41/41/41 47/62/46
f 39/39/42 45/60/50 46/61/48
s 0
f 42/42/49 48/63/49 49/64/49
s 1
f 40/40/44 46/61/48 47/62/46
f 45/60/50 50/65/54 51/66/51
s 0
f 48/63/52 53/68/52 54/69/52
s 1
f 46/61/48 51/66/51 52/67/53
f 91/111/47 47/62/46 52/67/53
s 0
f 53/68/56 58/73/56 59/74/56
s 1
f 51/66/51 56/71/60 57/72/57
f 92/112/55 52/67/53 57/72/57
f 50/65/54 55/70/58 56/71/60
f 93/113/59 57/72/57 62/79/62
f 56/71/60 55/70/58 60/75/61
s 0
f 58/73/65 63/82/65 64/84/65
s 1
f 56/71/60 61/77/64 62/79/62
f 94/114/63 62/80/62 67/87/66
f 60/76/61 65/85/70 66/86/68
s 0
f 63/81/69 68/88/69 69/89/69
s 1
f 61/78/64 66/86/68 67/87/66
s 0
f 68/88/71 73/93/71 74/94/71
s 1
f 66/86/68 71/91/75 72/92/72
f 95/116/67 67/87/66 72/92/72
f 65/85/70 70/90/73 71/91/75
s 0
f 73/93/76 78/98/76 79/99/76
s 1
f 71/91/75 76/96/80 77/97/77
f 96/117/74 72/92/72 77/97/77
f 70/90/73 75/95/78 76/96/80
f 97/118/79 77/97/77 1/1/3
f 76/96/80 75/95/78 80/100/4
s 0
f 79/99/81 78/98/81 2/2/81
s 1
f 76/96/80 81/101/1 1/1/3
s 0
f 78/98/82 97/118/82 82/102/82
f 96/117/83 97/118/83 78/98/83
f 95/116/84 96/117/84 73/93/84
f 94/114/85 95/116/85 68/88/85
f 93/113/86 94/115/86 63/82/86
f 92/112/87 93/113/87 58/73/87
f 91/111/88 92/112/88 53/68/88
f 90/110/89 91/111/89 48/63/89
f 89/109/90 90/110/90 42/42/90
f 88/108/91 89/109/91 37/37/91
f 27/27/92 87/107/92 88/108/92
f 86/106/93 87/107/93 27/27/93
f 85/105/94 86/106/94 22/22/94
f 84/104/95 85/105/95 17/17/95
f 83/103/96 84/104/96 12/12/96
f 82/102/97 83/103/97 7/7/97
