# Blender 4.3.2
# www.blender.org
o Cube
v 0.368872 0.967613 -0.087801
v 0.199499 0.565311 -0.323875
v 0.252099 0.761026 0.348031
v 0.082727 0.358724 0.111958
v -0.082727 1.171915 -0.111958
v -0.252099 0.769614 -0.348031
v -0.199499 0.965328 0.323875
v -0.368872 0.563026 0.087801
vn 0.3413 0.8107 0.4757
vn -0.2353 -0.4163 0.8783
vn -0.9100 0.4117 -0.0487
vn -0.3413 -0.8107 -0.4757
vn 0.9100 -0.4117 0.0487
vn 0.2353 0.4163 -0.8783
vt 0.625000 0.500000
vt 0.875000 0.500000
vt 0.875000 0.750000
vt 0.625000 0.750000
vt 0.375000 0.750000
vt 0.625000 1.000000
vt 0.375000 1.000000
vt 0.375000 0.000000
vt 0.625000 0.000000
vt 0.625000 0.250000
vt 0.375000 0.250000
vt 0.125000 0.500000
vt 0.375000 0.500000
vt 0.125000 0.750000
s 0
f 1/1/1 5/2/1 7/3/1 3/4/1
f 4/5/2 3/4/2 7/6/2 8/7/2
f 8/8/3 7/9/3 5/10/3 6/11/3
f 6/12/4 2/13/4 4/5/4 8/14/4
f 2/13/5 1/1/5 3/4/5 4/5/5
f 6/11/6 5/10/6 1/1/6 2/13/6
o Plane
v -5.558485 0.000000 5.558485 0.4505 1.0000 0.8655
v 5.558485 0.000000 5.558485 0.4505 1.0000 0.8655
v -5.558485 0.000000 -5.558485 0.4505 1.0000 0.8655
v 5.558485 0.000000 -5.558485 0.4505 1.0000 0.8655
vn -0.0000 1.0000 -0.0000
vt 0.000000 0.000000
vt 1.000000 0.000000
vt 1.000000 1.000000
vt 0.000000 1.000000
s 0
f 9/15/7 10/16/7 12/17/7 11/18/7
